<svg width="93" height="105" viewBox="0 0 93 105" fill="none" xmlns="http://www.w3.org/2000/svg">
<path d="M0 24C0 17.3726 5.37258 12 12 12H92V92H12C5.37259 92 0 86.6274 0 80V24Z" fill="#1F1D2B"/>
<path d="M88.5 8C92.5 4 92 0 92 0V12H80C80 12 84.5 12 88.5 8Z" fill="#1F1D2B"/>
<path d="M88.01 95.51C84.01 91.51 80.01 92.01 80.01 92.01H92.01V104.01C92.01 104.01 92.01 99.51 88.01 95.51Z" fill="#1F1D2B"/>
<path d="M37.7304 43.7884C39.0004 42.7794 40.7804 42.7394 42.0894 43.6684L42.2504 43.7884L48.3394 48.6594C49.0094 49.1784 49.4204 49.9494 49.4904 50.7884L49.5004 50.9894V59.0984C49.5004 61.1884 47.8494 62.8884 45.7804 62.9984H43.7904C42.8394 62.9794 42.0704 62.2394 42.0004 61.3094L41.9904 61.1684V58.3094C41.9904 57.9984 41.7594 57.7394 41.4504 57.6884L41.3604 57.6784H38.6894C38.3704 57.6884 38.1104 57.9184 38.0704 58.2184L38.0604 58.3094V61.1594C38.0604 61.2184 38.0494 61.2884 38.0404 61.3384L38.0304 61.3594L38.0194 61.4284C37.9004 62.2794 37.2004 62.9284 36.3304 62.9894L36.2004 62.9984H34.4104C32.3204 62.9984 30.6104 61.3594 30.5004 59.2984V50.9894C30.5094 50.1384 30.8804 49.3484 31.5004 48.7984L37.7304 43.7884ZM41.3804 44.8784C40.6204 44.2684 39.5404 44.2394 38.7404 44.7684L38.5894 44.8784L32.5094 49.7794C32.1604 50.0384 31.9504 50.4284 31.9004 50.8384L31.8894 50.9984V59.0984C31.8894 60.4284 32.9294 61.5184 34.2504 61.5984H36.2004C36.4204 61.5984 36.6104 61.4494 36.6394 61.2394L36.6604 61.0594L36.6704 61.0084V58.3094C36.6704 57.2394 37.4904 56.3694 38.5404 56.2884H41.3604C42.4294 56.2884 43.2994 57.1094 43.3804 58.1594V61.1684C43.3804 61.3784 43.5304 61.5594 43.7304 61.5984H45.5894C46.9294 61.5984 48.0194 60.5694 48.0994 59.2584L48.1104 59.0984V50.9984C48.0994 50.5694 47.9204 50.1684 47.6104 49.8694L47.4804 49.7584L41.3804 44.8784Z" fill="#EA7C69"/>
</svg>
