<svg width="105" height="113" viewBox="0 0 105 113" fill="none" xmlns="http://www.w3.org/2000/svg">
<path d="M12 24C12 17.3726 17.3726 12 24 12H104V92H24C17.3726 92 12 86.6274 12 80V24Z" fill="#252836"/>
<path d="M100.5 8C104.5 4 104 0 104 0V12H92C92 12 96.5 12 100.5 8Z" fill="#252836"/>
<path d="M100.01 95.51C96.01 91.51 92.01 92.01 92.01 92.01H104.01V104.01C104.01 104.01 104.01 99.51 100.01 95.51Z" fill="#252836"/>
<g filter="url(#filter0_d_7702_2365)">
<rect x="24" y="25" width="56" height="56" rx="8" fill="#EA7C69" shape-rendering="crispEdges"/>
<path d="M56.3212 43.7581C57.8351 43.7751 59.2761 44.416 60.3085 45.5315C61.3408 46.647 61.8745 48.1398 61.7865 49.617L61.7852 55.854C61.8745 57.3763 61.3408 58.8691 60.3085 59.9846C59.2761 61.1001 57.8351 61.741 56.3127 61.7581H47.2521C44.0825 61.7581 41.7959 59.1965 41.7959 55.8991V49.617C41.7959 46.3196 44.0825 43.7581 47.2521 43.7581H56.3212ZM56.3043 45.2864H47.2521C44.9587 45.2864 43.3133 47.1296 43.3133 49.617V55.8991C43.3133 58.3865 44.9587 60.2297 47.2521 60.2297H56.3043C57.4032 60.2173 58.4491 59.7521 59.1985 58.9424C59.9479 58.1327 60.3352 57.0492 60.2691 55.8991L60.2704 49.5719C60.3352 48.4669 59.9479 47.3834 59.1985 46.5737C58.4491 45.764 57.4032 45.2988 56.3043 45.2864ZM57.8199 49.3964C58.058 49.696 58.0359 50.1207 57.7841 50.3936L57.7017 50.4706L53.5947 53.7817C52.5972 54.5648 51.219 54.6039 50.1789 53.8956L50.0176 53.7775L45.8832 50.4726C45.5549 50.2102 45.5 49.7295 45.7605 49.3989C45.9973 49.0984 46.4133 49.0253 46.7335 49.2117L46.8265 49.2754L50.9557 52.5762C51.4187 52.9396 52.0534 52.9676 52.5367 52.6649L52.6542 52.5823L56.7535 49.2774C57.0806 49.0136 57.5581 49.0669 57.8199 49.3964Z" fill="white"/>
</g>
<defs>
<filter id="filter0_d_7702_2365" x="0" y="9" width="104" height="104" filterUnits="userSpaceOnUse" color-interpolation-filters="sRGB">
<feFlood flood-opacity="0" result="BackgroundImageFix"/>
<feColorMatrix in="SourceAlpha" type="matrix" values="0 0 0 0 0 0 0 0 0 0 0 0 0 0 0 0 0 0 127 0" result="hardAlpha"/>
<feOffset dy="8"/>
<feGaussianBlur stdDeviation="12"/>
<feComposite in2="hardAlpha" operator="out"/>
<feColorMatrix type="matrix" values="0 0 0 0 0.917647 0 0 0 0 0.486275 0 0 0 0 0.411765 0 0 0 0.25 0"/>
<feBlend mode="normal" in2="BackgroundImageFix" result="effect1_dropShadow_7702_2365"/>
<feBlend mode="normal" in="SourceGraphic" in2="effect1_dropShadow_7702_2365" result="shape"/>
</filter>
</defs>
</svg>
