<svg width="105" height="113" viewBox="0 0 105 113" fill="none" xmlns="http://www.w3.org/2000/svg">
<path d="M12 24C12 17.3726 17.3726 12 24 12H104V92H24C17.3726 92 12 86.6274 12 80V24Z" fill="#252836"/>
<path d="M100.5 8C104.5 4 104 0 104 0V12H92C92 12 96.5 12 100.5 8Z" fill="#1F1D2B"/>
<path d="M100.01 95.51C96.01 91.51 92.01 92.01 92.01 92.01H104.01V104.01C104.01 104.01 104.01 99.51 100.01 95.51Z" fill="#1F1D2B"/>
<g filter="url(#filter0_d_7702_2375)">
<rect x="24" y="25" width="56" height="56" rx="8" fill="#EA7C69" shape-rendering="crispEdges"/>
<path d="M54.608 60.6906C54.9045 60.9321 54.9515 61.3713 54.7129 61.6715C54.5366 61.8935 54.3327 62.0922 54.1167 62.255C53.3891 62.826 52.464 63.0849 51.5453 62.9754C50.6258 62.8659 49.787 62.3962 49.2146 61.6689C48.9774 61.3676 49.0265 60.9286 49.3242 60.6885C49.6219 60.4484 50.0555 60.4981 50.2927 60.7995C50.6379 61.2381 51.1467 61.523 51.7064 61.5896C52.2669 61.6564 52.8307 61.4986 53.2826 61.1443C53.4158 61.0437 53.5355 60.927 53.6389 60.7969C53.8775 60.4967 54.3114 60.4491 54.608 60.6906ZM45.1521 49.9997L45.1644 49.4039C45.1732 49.1491 45.1869 48.9125 45.2068 48.681C45.5065 45.4446 48.5956 43 51.9648 43H52.0361C55.4034 43 58.4934 45.4429 58.8034 48.6854C58.8212 48.8915 58.8288 49.0746 58.8311 49.3321L58.832 50.1198C58.8327 50.1916 58.8339 50.2547 58.8358 50.3135L58.845 50.5098L58.8896 50.6969C59.0303 51.218 59.2776 51.7052 59.6162 52.1282L59.7669 52.3055L59.8286 52.3847C60.2348 52.9917 60.4668 53.698 60.5 54.4587L60.499 54.862C60.4707 55.763 60.1399 56.6331 59.5338 57.3582C58.7311 58.2101 57.6434 58.7393 56.4873 58.8457C53.502 59.1699 50.49 59.1699 47.513 58.8466C46.349 58.7346 45.2644 58.2069 44.4266 57.3223C43.8088 56.5691 43.4804 55.6208 43.5009 54.6624L43.5017 54.4242C43.5374 53.6955 43.768 52.9898 44.1694 52.3802L44.2365 52.2938C44.7052 51.7799 45.0257 51.151 45.1647 50.4731L45.1497 50.534L45.1521 49.9997ZM52.0361 44.3953H51.9648C49.2665 44.3953 46.808 46.3409 46.5797 48.8068C46.568 48.9423 46.5587 49.0821 46.5514 49.2292L46.5353 49.6956L46.5288 50.6149L46.5144 50.7567C46.3244 51.683 45.8873 52.5409 45.2493 53.2404L45.2986 53.1833L45.2104 53.3291C45.0454 53.6265 44.9389 53.9495 44.8968 54.2682L44.8794 54.4587L44.8792 54.6774C44.8657 55.3142 45.0809 55.9356 45.4537 56.3931C46.0288 56.9985 46.8068 57.377 47.6517 57.4583C50.5393 57.7719 53.4527 57.7719 56.3514 57.4572C57.1871 57.3802 57.9645 57.002 58.5084 56.4267C58.92 55.933 59.1375 55.3097 59.1216 54.6536L59.1224 54.4901C59.1013 54.0186 58.951 53.5613 58.6873 53.1672L58.7026 53.1926L58.5647 53.0309C58.0893 52.4441 57.744 51.7635 57.5517 51.034L57.4868 50.7582L57.4739 50.6655C57.4642 50.5301 57.4585 50.4098 57.4555 50.2651L57.4528 49.3605C57.4509 49.1304 57.4447 48.9756 57.4307 48.8133C57.1944 46.3408 54.7336 44.3953 52.0361 44.3953Z" fill="white"/>
</g>
<defs>
<filter id="filter0_d_7702_2375" x="0" y="9" width="104" height="104" filterUnits="userSpaceOnUse" color-interpolation-filters="sRGB">
<feFlood flood-opacity="0" result="BackgroundImageFix"/>
<feColorMatrix in="SourceAlpha" type="matrix" values="0 0 0 0 0 0 0 0 0 0 0 0 0 0 0 0 0 0 127 0" result="hardAlpha"/>
<feOffset dy="8"/>
<feGaussianBlur stdDeviation="12"/>
<feComposite in2="hardAlpha" operator="out"/>
<feColorMatrix type="matrix" values="0 0 0 0 0.917647 0 0 0 0 0.486275 0 0 0 0 0.411765 0 0 0 0.25 0"/>
<feBlend mode="normal" in2="BackgroundImageFix" result="effect1_dropShadow_7702_2375"/>
<feBlend mode="normal" in="SourceGraphic" in2="effect1_dropShadow_7702_2375" result="shape"/>
</filter>
</defs>
</svg>
